<svg xmlns='http://www.w3.org/2000/svg' version='1.1' width='1479px' height='788px'><svg xmlns="http://www.w3.org/2000/svg" id="graphic" fill="currentColor" font-family="Source Sans Pro" width="1461.800048828125" height="642.6179492950439" x="17.100006103515625" y="144.53334045410156"><g class="facets"><g class="facet" transform="translate(0,0)" opacity="1"><g class="fl-chart"><clipPath class="fl-data-clip-path" id="fl-chart-layout-1-clip-path"><rect x="57.85416793823242" y="9.945002746582032" width="1194.1458808898926" height="597.0729404449463"/></clipPath><clipPath class="fl-grid-clip-path" id="fl-chart-layout-1-grid-clip-path"><rect x="56.25416793823242" y="8.345002746582033" width="1197.3458808898927" height="600.2729404449464"/></clipPath><g class="fl-chart-background"><rect class="fl-chart-fill" x="57.85416793823242" y="9.945002746582032" width="1194.1458808898926" height="597.0729404449463" fill="none"/><image class="fl-chart-image" x="57.85416793823242" y="9.945002746582032" width="1194.1458808898926" height="597.0729404449463" preserveAspectRatio="none"/><rect class="fl-chart-interaction" style="opacity: 0;" x="57.85416793823242" y="9.945002746582032" width="1194.1458808898926" height="597.0729404449463"/></g><g class="fl-data-background" clip-path="url(#fl-chart-layout-1-clip-path)"/><g class="fl-gridlines" style="pointer-events: none;" clip-path="url(#fl-chart-layout-1-grid-clip-path)"><g class="fl-gridlines-vertical"/><g class="fl-gridlines-horizontal"><line style="shape-rendering: crispedges; opacity: 1; stroke: rgb(238, 238, 238); stroke-width: 1.6px;" x1="57.85416793823242" x2="1252.000048828125" y1="607.0179431915284" y2="607.0179431915284"/><line style="shape-rendering: crispedges; opacity: 1; stroke: rgb(238, 238, 238); stroke-width: 1.6px;" x1="57.85416793823242" x2="1252.000048828125" y1="561.089255464994" y2="561.089255464994"/><line style="shape-rendering: crispedges; opacity: 1; stroke: rgb(238, 238, 238); stroke-width: 1.6px;" x1="57.85416793823242" x2="1252.000048828125" y1="515.1605677384597" y2="515.1605677384597"/><line style="shape-rendering: crispedges; opacity: 1; stroke: rgb(238, 238, 238); stroke-width: 1.6px;" x1="57.85416793823242" x2="1252.000048828125" y1="469.23188001192534" y2="469.23188001192534"/><line style="shape-rendering: crispedges; opacity: 1; stroke: rgb(238, 238, 238); stroke-width: 1.6px;" x1="57.85416793823242" x2="1252.000048828125" y1="423.303192285391" y2="423.303192285391"/><line style="shape-rendering: crispedges; opacity: 1; stroke: rgb(238, 238, 238); stroke-width: 1.6px;" x1="57.85416793823242" x2="1252.000048828125" y1="377.3745045588567" y2="377.3745045588567"/><line style="shape-rendering: crispedges; opacity: 1; stroke: rgb(238, 238, 238); stroke-width: 1.6px;" x1="57.85416793823242" x2="1252.000048828125" y1="331.44581683232235" y2="331.44581683232235"/><line style="shape-rendering: crispedges; opacity: 1; stroke: rgb(238, 238, 238); stroke-width: 1.6px;" x1="57.85416793823242" x2="1252.000048828125" y1="285.51712910578806" y2="285.51712910578806"/><line style="shape-rendering: crispedges; opacity: 1; stroke: rgb(238, 238, 238); stroke-width: 1.6px;" x1="57.85416793823242" x2="1252.000048828125" y1="239.58844137925368" y2="239.58844137925368"/><line style="shape-rendering: crispedges; opacity: 1; stroke: rgb(238, 238, 238); stroke-width: 1.6px;" x1="57.85416793823242" x2="1252.000048828125" y1="193.6597536527194" y2="193.6597536527194"/><line style="shape-rendering: crispedges; opacity: 1; stroke: rgb(238, 238, 238); stroke-width: 1.6px;" x1="57.85416793823242" x2="1252.000048828125" y1="147.731065926185" y2="147.731065926185"/><line style="shape-rendering: crispedges; opacity: 1; stroke: rgb(238, 238, 238); stroke-width: 1.6px;" x1="57.85416793823242" x2="1252.000048828125" y1="101.8023781996507" y2="101.8023781996507"/><line style="shape-rendering: crispedges; opacity: 1; stroke: rgb(238, 238, 238); stroke-width: 1.6px;" x1="57.85416793823242" x2="1252.000048828125" y1="55.87369047311634" y2="55.87369047311634"/><line style="shape-rendering: crispedges; opacity: 1; stroke: rgb(238, 238, 238); stroke-width: 1.6px;" x1="57.85416793823242" x2="1252.000048828125" y1="9.945002746582032" y2="9.945002746582032"/></g></g><g class="fl-axes"><g class="fl-x-axes"><g class="fl-axis fl-x-axis fl-bottom-axis"><g class="fl-axis-line"><line style="shape-rendering: crispedges; stroke-linecap: square; stroke-width: 1.6px; opacity: 1; stroke: rgb(133, 133, 133);" x1="57.85416793823242" x2="1252.000048828125" y1="607.0179431915284" y2="607.0179431915284"/></g><g class="fl-axis-ticks"><g style="opacity: 1;" transform="translate(1252, 607.0179443359375)"><line y2="9" style="stroke: rgb(133, 133, 133); stroke-width: 1.6px;"/><text text-anchor="end" transform="translate(16.125, 24.191999435424805)" style="user-select: none; cursor: default; fill: rgb(133, 133, 133); font-size: 16.2px; font-weight: normal;"><tspan x="0" dy="0">2010</tspan></text></g><g style="opacity: 1;" transform="translate(1160.154296875, 607.0179443359375)"><line y2="9" style="stroke: rgb(133, 133, 133); stroke-width: 1.6px;"/><text text-anchor="end" transform="translate(16.125,24.192)" style="user-select: none; cursor: default; fill: rgb(133, 133, 133); font-size: 16.2px; font-weight: normal;"><tspan x="0" dy="0">2005</tspan></text></g><g style="opacity: 1;" transform="translate(1068.2581787109375, 607.0179443359375)"><line y2="9" style="stroke: rgb(133, 133, 133); stroke-width: 1.6px;"/><text text-anchor="end" transform="translate(16.125, 24.191999435424805)" style="user-select: none; cursor: default; fill: rgb(133, 133, 133); font-size: 16.2px; font-weight: normal;"><tspan x="0" dy="0">2000</tspan></text></g><g style="opacity: 1;" transform="translate(57.85416793823242, 607.0179443359375)"><line y2="9" style="stroke: rgb(133, 133, 133); stroke-width: 1.6px;"/><text text-anchor="end" transform="translate(16.125,24.192)" style="user-select: none; cursor: default; fill: rgb(133, 133, 133); font-size: 16.2px; font-weight: normal;"><tspan x="0" dy="0">1945</tspan></text></g><g style="opacity: 1;" transform="translate(976.4124755859375, 607.0179443359375)"><line y2="9" style="stroke: rgb(133, 133, 133); stroke-width: 1.6px;"/><text text-anchor="end" transform="translate(16.125,24.192)" style="user-select: none; cursor: default; fill: rgb(133, 133, 133); font-size: 16.2px; font-weight: normal;"><tspan x="0" dy="0">1995</tspan></text></g><g style="opacity: 1;" transform="translate(149.69993591308594, 607.0179443359375)"><line y2="9" style="stroke: rgb(133, 133, 133); stroke-width: 1.6px;"/><text text-anchor="end" transform="translate(16.125, 24.191999435424805)" style="user-select: none; cursor: default; fill: rgb(133, 133, 133); font-size: 16.2px; font-weight: normal;"><tspan x="0" dy="0">1950</tspan></text></g><g style="opacity: 1;" transform="translate(884.566650390625, 607.0179443359375)"><line y2="9" style="stroke: rgb(133, 133, 133); stroke-width: 1.6px;"/><text text-anchor="end" transform="translate(16.125, 24.191999435424805)" style="user-select: none; cursor: default; fill: rgb(133, 133, 133); font-size: 16.2px; font-weight: normal;"><tspan x="0" dy="0">1990</tspan></text></g><g style="opacity: 1;" transform="translate(241.5457000732422, 607.0179443359375)"><line y2="9" style="stroke: rgb(133, 133, 133); stroke-width: 1.6px;"/><text text-anchor="end" transform="translate(16.125,24.192)" style="user-select: none; cursor: default; fill: rgb(133, 133, 133); font-size: 16.2px; font-weight: normal;"><tspan x="0" dy="0">1955</tspan></text></g><g style="opacity: 1;" transform="translate(792.7208862304688, 607.0179443359375)"><line y2="9" style="stroke: rgb(133, 133, 133); stroke-width: 1.6px;"/><text text-anchor="end" transform="translate(16.125,24.192)" style="user-select: none; cursor: default; fill: rgb(133, 133, 133); font-size: 16.2px; font-weight: normal;"><tspan x="0" dy="0">1985</tspan></text></g><g style="opacity: 1;" transform="translate(333.3914794921875, 607.0179443359375)"><line y2="9" style="stroke: rgb(133, 133, 133); stroke-width: 1.6px;"/><text text-anchor="end" transform="translate(16.125, 24.191999435424805)" style="user-select: none; cursor: default; fill: rgb(133, 133, 133); font-size: 16.2px; font-weight: normal;"><tspan x="0" dy="0">1960</tspan></text></g><g style="opacity: 1;" transform="translate(700.8248291015625, 607.0179443359375)"><line y2="9" style="stroke: rgb(133, 133, 133); stroke-width: 1.6px;"/><text text-anchor="end" transform="translate(16.125, 24.191999435424805)" style="user-select: none; cursor: default; fill: rgb(133, 133, 133); font-size: 16.2px; font-weight: normal;"><tspan x="0" dy="0">1980</tspan></text></g><g style="opacity: 1;" transform="translate(425.28753662109375, 607.0179443359375)"><line y2="9" style="stroke: rgb(133, 133, 133); stroke-width: 1.6px;"/><text text-anchor="end" transform="translate(16.125,24.192)" style="user-select: none; cursor: default; fill: rgb(133, 133, 133); font-size: 16.2px; font-weight: normal;"><tspan x="0" dy="0">1965</tspan></text></g><g style="opacity: 1;" transform="translate(608.9790649414062, 607.0179443359375)"><line y2="9" style="stroke: rgb(133, 133, 133); stroke-width: 1.6px;"/><text text-anchor="end" transform="translate(16.125,24.192)" style="user-select: none; cursor: default; fill: rgb(133, 133, 133); font-size: 16.2px; font-weight: normal;"><tspan x="0" dy="0">1975</tspan></text></g><g style="opacity: 1;" transform="translate(517.13330078125, 607.0179443359375)"><line y2="9" style="stroke: rgb(133, 133, 133); stroke-width: 1.6px;"/><text text-anchor="end" transform="translate(16.125, 24.191999435424805)" style="user-select: none; cursor: default; fill: rgb(133, 133, 133); font-size: 16.2px; font-weight: normal;"><tspan x="0" dy="0">1970</tspan></text></g></g><g class="fl-axis-title"/></g><g class="fl-axis fl-x-axis fl-top-axis"><g class="fl-axis-line"/><g class="fl-axis-ticks"/><g class="fl-axis-title"/></g></g><g class="fl-y-axes"><g class="fl-axis fl-y-axis fl-left-axis"><g class="fl-axis-line"><line style="shape-rendering: crispedges; stroke-linecap: square; stroke-width: 1.6px; opacity: 1; stroke: rgb(238, 238, 238);" x1="57.85416793823242" x2="57.85416793823242" y1="9.945002746582032" y2="607.0179431915284"/></g><g class="fl-axis-ticks"><g style="opacity: 1;" transform="translate(57.85416793823242, 607.0179443359375)"><line x2="-9" style="stroke: rgb(238, 238, 238); stroke-width: 1.6px;"/><text text-anchor="end" transform="translate(-13.5,5.346)" style="user-select: none; cursor: default; fill: rgb(170, 170, 170); font-size: 16.2px; font-weight: normal;"><tspan x="0" dy="0">0</tspan></text></g><g style="opacity: 1;" transform="translate(57.85416793823242, 147.73106384277344)"><line x2="-9" style="stroke: rgb(238, 238, 238); stroke-width: 1.6px;"/><text text-anchor="end" transform="translate(-13.5,5.346)" style="user-select: none; cursor: default; fill: rgb(170, 170, 170); font-size: 16.2px; font-weight: normal;"><tspan x="0" dy="0">10,000</tspan></text></g><g style="opacity: 1;" transform="translate(57.85416793823242, 193.65975952148438)"><line x2="-9" style="stroke: rgb(238, 238, 238); stroke-width: 1.6px;"/><text text-anchor="end" transform="translate(-13.5,5.346)" style="user-select: none; cursor: default; fill: rgb(170, 170, 170); font-size: 16.2px; font-weight: normal;"><tspan x="0" dy="0">9000</tspan></text></g><g style="opacity: 1;" transform="translate(57.85416793823242, 239.58843994140625)"><line x2="-9" style="stroke: rgb(238, 238, 238); stroke-width: 1.6px;"/><text text-anchor="end" transform="translate(-13.5,5.346)" style="user-select: none; cursor: default; fill: rgb(170, 170, 170); font-size: 16.2px; font-weight: normal;"><tspan x="0" dy="0">8000</tspan></text></g><g style="opacity: 1;" transform="translate(57.85416793823242, 285.5171203613281)"><line x2="-9" style="stroke: rgb(238, 238, 238); stroke-width: 1.6px;"/><text text-anchor="end" transform="translate(-13.5,5.346)" style="user-select: none; cursor: default; fill: rgb(170, 170, 170); font-size: 16.2px; font-weight: normal;"><tspan x="0" dy="0">7000</tspan></text></g><g style="opacity: 1;" transform="translate(57.85416793823242, 331.4458312988281)"><line x2="-9" style="stroke: rgb(238, 238, 238); stroke-width: 1.6px;"/><text text-anchor="end" transform="translate(-13.5,5.346)" style="user-select: none; cursor: default; fill: rgb(170, 170, 170); font-size: 16.2px; font-weight: normal;"><tspan x="0" dy="0">6000</tspan></text></g><g style="opacity: 1;" transform="translate(57.85416793823242, 377.37451171875)"><line x2="-9" style="stroke: rgb(238, 238, 238); stroke-width: 1.6px;"/><text text-anchor="end" transform="translate(-13.5,5.346)" style="user-select: none; cursor: default; fill: rgb(170, 170, 170); font-size: 16.2px; font-weight: normal;"><tspan x="0" dy="0">5000</tspan></text></g><g style="opacity: 1;" transform="translate(57.85416793823242, 423.3031921386719)"><line x2="-9" style="stroke: rgb(238, 238, 238); stroke-width: 1.6px;"/><text text-anchor="end" transform="translate(-13.5,5.346)" style="user-select: none; cursor: default; fill: rgb(170, 170, 170); font-size: 16.2px; font-weight: normal;"><tspan x="0" dy="0">4000</tspan></text></g><g style="opacity: 1;" transform="translate(57.85416793823242, 469.23187255859375)"><line x2="-9" style="stroke: rgb(238, 238, 238); stroke-width: 1.6px;"/><text text-anchor="end" transform="translate(-13.5,5.346)" style="user-select: none; cursor: default; fill: rgb(170, 170, 170); font-size: 16.2px; font-weight: normal;"><tspan x="0" dy="0">3000</tspan></text></g><g style="opacity: 1;" transform="translate(57.85416793823242, 515.1605834960938)"><line x2="-9" style="stroke: rgb(238, 238, 238); stroke-width: 1.6px;"/><text text-anchor="end" transform="translate(-13.5,5.346)" style="user-select: none; cursor: default; fill: rgb(170, 170, 170); font-size: 16.2px; font-weight: normal;"><tspan x="0" dy="0">2000</tspan></text></g><g style="opacity: 1;" transform="translate(57.85416793823242, 561.0892333984375)"><line x2="-9" style="stroke: rgb(238, 238, 238); stroke-width: 1.6px;"/><text text-anchor="end" transform="translate(-13.5,5.346)" style="user-select: none; cursor: default; fill: rgb(170, 170, 170); font-size: 16.2px; font-weight: normal;"><tspan x="0" dy="0">1000</tspan></text></g><g style="opacity: 1;" transform="translate(57.85416793823242, 9.945002555847168)"><line x2="-9" style="stroke: rgb(238, 238, 238); stroke-width: 1.6px;"/><text text-anchor="end" transform="translate(-13.5,5.346)" style="user-select: none; cursor: default; fill: rgb(170, 170, 170); font-size: 16.2px; font-weight: normal;"><tspan x="0" dy="0">13,000</tspan></text></g><g style="opacity: 1;" transform="translate(57.85416793823242, 55.87369155883789)"><line x2="-9" style="stroke: rgb(238, 238, 238); stroke-width: 1.6px;"/><text text-anchor="end" transform="translate(-13.5,5.346)" style="user-select: none; cursor: default; fill: rgb(170, 170, 170); font-size: 16.2px; font-weight: normal;"><tspan x="0" dy="0">12,000</tspan></text></g><g style="opacity: 1;" transform="translate(57.85416793823242, 101.80237579345703)"><line x2="-9" style="stroke: rgb(238, 238, 238); stroke-width: 1.6px;"/><text text-anchor="end" transform="translate(-13.5,5.346)" style="user-select: none; cursor: default; fill: rgb(170, 170, 170); font-size: 16.2px; font-weight: normal;"><tspan x="0" dy="0">11,000</tspan></text></g></g><g class="fl-axis-title"/></g><g class="fl-axis fl-y-axis fl-right-axis"><g class="fl-axis-line"/><g class="fl-axis-ticks"/><g class="fl-axis-title"/></g></g></g><g class="fl-data-foreground" clip-path="url(#fl-chart-layout-1-clip-path)"/></g><g class="facet-title" transform="translate(0, 0)"><rect class="facet-title-bg" height="0" fill="#eeeeee" x="57.85416793823242" clip-path="url(#facet-clip-0)"/><text class="facet-title-text" font-size="22.5" font-weight="bold" dx="0" dy="0" x="57.85416793823242" clip-path="url(#facet-clip-0)" opacity="0"/></g><clipPath class="facet-clip" id="facet-clip-0"><rect transform="translate(-109.1187515258789, -13.5)" width="1470.237548828125" height="649.7279438018799"/></clipPath></g></g><g class="annotations below"><g class="axis-highlights" transform="translate(0, 0)" style="opacity: 1;"/></g><g id="areas"/><g id="lines"><g class="series"><clipPath id="clip-0-0"><rect width="1194.1458808898926" x="57.85416793823242" y="7.245002746582033" height="602.4729404449463"/></clipPath><path class="line" opacity="1" pointer-events="none" fill="none" stroke="black" stroke-width="2.6999999999999997" transform="translate(0,0)" clip-path="url(#clip-0-0)" clip-path-id="0-0" d="M57.85416793823242,606.6505136897161C63.973865880256916,606.5510015329753,70.09356382228141,606.4514893762345,76.21326176430591,606.4208702510834C82.33295970633041,606.3902511259324,88.4526576483549,606.4055606885079,94.5723555903794,606.3749415633569C100.6920535324039,606.3443224382058,106.8117514744284,606.2600049419241,112.9314494164529,606.1912268124507C119.06791365420898,606.122260249746,125.20437789196505,605.9615833738181,131.34084212972112,605.9615833738181C137.4605400717456,605.9615833738181,143.58023801377013,606.0993694369978,149.69993595579461,606.0993694369978C155.8196338978191,606.0993694369978,161.93933183984362,605.8161425293508,168.0590297818681,605.7319399351854C174.1787277238926,605.64773734102,180.2984256659171,605.5941538720058,186.4181236079416,605.5941538720058C192.55458784569765,605.5941538720058,198.69105208345374,605.5941538720058,204.8275163212098,605.5941538720058C210.94721426323432,605.5941538720058,217.0669122052588,604.9052235561079,223.18661014728332,604.9052235561079C229.3063080893078,604.9052235561079,235.42600603133232,605.0353548379996,241.5457039733568,605.0889383070139C247.6654019153813,605.1425217760282,253.7850998574058,605.2267243701936,259.9047977994303,605.2267243701936C266.04126203718636,605.2267243701936,272.1777262749424,605.1807956824671,278.3141905126985,605.1807956824671C284.433888454723,605.1807956824671,290.5535863967475,605.5022964965528,296.673284338772,605.5022964965528C302.79298228079654,605.5022964965528,308.912680222821,604.7061992426262,315.0323781648455,604.6755801174752C321.15207610687,604.6449609923242,327.2717740488945,604.6296514297486,333.391471990919,604.6296514297486C339.52793622867506,604.6296514297486,345.6644004664311,604.8133661806548,351.8008647041872,604.8133661806548C357.9205626462117,604.8133661806548,364.04026058823615,603.5426724868872,370.15995853026067,603.114004734773C376.2796564722852,602.6853369826586,382.3993544143097,602.8231230458382,388.5190523563342,602.2413596679688C394.6387502983587,601.6595962900994,400.7584482403832,599.2406854031686,406.87814618240765,593.2393368735682C413.0146104201637,587.2215462932016,419.1510746579198,558.6550350154878,425.2875388956759,558.6550350154878C431.4072368377004,558.6550350154878,437.5269347797249,573.9033593406971,443.6466327217494,573.9033593406971C449.7663306637739,573.9033593406971,455.8860286057984,573.1225716493461,462.00572654782286,573.1225716493461C468.1254244898474,573.1225716493461,474.2451224318719,573.9799071535748,480.3648203738964,575.694578162032C486.50128461165247,577.4139468992796,492.6377488494085,585.7988894618695,498.7742130871646,585.7988894618695C504.89391102918904,585.7988894618695,511.01360897121356,584.6506722687062,517.133306913238,584.6506722687062C523.2530048552626,584.6506722687062,529.372702797287,584.7272200815837,535.4924007393116,584.8803157073388C541.6120986813361,585.0334113330939,547.7317966233607,586.8949330258321,553.8514945653851,587.9116090972901C559.9879588031412,588.9310705826425,566.1244230408972,590.9888311749679,572.2608872786533,590.9888311749679C578.3805852206777,590.9888311749679,584.5002831627023,589.1057549781799,590.6199811047268,589.1057549781799C596.7396790467512,589.1057549781799,602.8593769887758,589.8482687630923,608.9790749308003,590.1161861081638C615.0987728728248,590.3841034532353,621.2184708148493,590.7132590486087,627.3381687568739,590.7132590486087C633.4746329946299,590.7132590486087,639.6110972323859,587.9591340672004,645.7475614701419,586.6715345286736C651.8672594121664,585.387453021673,657.986957354191,584.214349735304,664.1066552962154,582.9972395105509C670.2263532382399,581.7801292857978,676.3460511802645,580.5706738423324,682.4657491222889,579.3688731801548C688.5854470643135,578.1670725179771,694.705145006338,576.6740153616541,700.8248429483625,575.7864355374851C706.9613071861186,574.8964239877704,713.0977714238746,574.0411454038767,719.2342356616307,574.0411454038767C725.3539336036553,574.0411454038767,731.4736315456797,579.9582913393119,737.5933294877043,581.8490223173876C743.7130274297288,583.7397532954633,749.8327253717531,584.8037678944612,755.9524233137776,585.3855312723307C762.0721212558021,585.9672946502002,768.1918191978266,586.2581763391349,774.3115171398512,586.2581763391349C780.4479813776072,586.2581763391349,786.5844456153633,584.0995280159877,792.7209098531193,584.0995280159877C798.8406077951439,584.0995280159877,804.9603057371684,584.4669575178001,811.0800036791929,584.4669575178001C817.1997016212174,584.4669575178001,823.319399563242,583.0202038544141,829.4390975052664,582.0327370682936C835.5587954472909,581.0452702821731,841.6784933893152,579.4144061193566,847.7981913313397,578.5421568010771C853.9346555690959,577.6675177586379,860.0711198068519,577.9603934232077,866.2075840446081,576.7968666674689C872.3272819866326,575.6365189465818,878.446979928657,571.1935667648315,884.5666778706815,571.1935667648315C890.686375812706,571.1935667648315,896.8060737547305,571.2394954525581,902.9257716967551,571.2394954525581C909.0454696387795,571.2394954525581,915.1651675808041,569.3104905680437,921.2848655228286,569.3104905680437C927.4213297605846,569.3104905680437,933.5577939983407,570.5505651366601,939.6942582360967,570.5505651366601C945.8139561781212,570.5505651366601,951.9336541201458,569.5554435692519,958.0533520621702,567.5652004344355C964.1730500041947,565.5749572996191,970.2927479462193,562.7579977857248,976.4124458882437,556.4045293168875C982.5321438302682,550.0510608480503,988.6518417722928,540.0731256252276,994.7715397143172,529.4443896214119C1000.9080039520733,518.7865337929283,1007.0444681898294,494.7590446503332,1013.1809324275855,492.5177246892783C1019.30063036961,490.2825285532536,1025.4203283116344,491.03269711945364,1031.5400262536589,489.16493048524126C1037.6597241956833,487.29716385102887,1043.779422137708,486.5469952848288,1049.8991200797325,481.3111248840039C1056.018818021757,476.075254483179,1062.1385159637816,457.5511712424726,1068.258213905806,448.5180418472584C1074.394678143562,439.4601641523314,1080.5311423813182,441.3684761244946,1086.6676066190741,427.0693446789669C1092.7873045610986,412.8092818985907,1098.9070025031233,343.8542172997744,1105.0267004451478,319.642144086603C1111.1463983871722,295.43007087343193,1117.2660963291967,290.5233560679803,1123.3857942712211,281.79690539993874C1129.5054922132456,273.07045473189714,1135.6251901552703,276.95908362607713,1141.7448880972947,267.2834400783539C1147.8813523350507,257.5812879181713,1154.0178165728069,144.43293870642532,1160.1542808105628,109.01318217271661C1166.2739787525873,73.69020093008308,1172.393676694612,54.77140196767952,1178.5133746366364,54.77140196767952C1184.6330725786609,54.77140196767952,1190.7527705206855,91.49904258633143,1196.87246846271,105.7063166564061C1202.9921664047345,119.9135907264806,1209.111864346759,140.01504638812725,1215.2315622887834,140.01504638812725C1221.3680265265393,140.01504638812725,1227.5044907642955,82.37454329132669,1233.6409550020514,82.37454329132669C1239.760652944076,82.37454329132669,1245.8803508861006,100.42451756785468,1252.000048828125,118.47449184438268"/></g><g class="series"><clipPath id="clip-0-1"><rect width="1194.1458808898926" x="57.85416793823242" y="7.245002746582033" height="602.4729404449463"/></clipPath><path class="line" opacity="1" pointer-events="none" fill="none" stroke="rgb(200, 64, 83)" stroke-width="2.6999999999999997" transform="translate(0,0)" clip-path="url(#clip-0-1)" clip-path-id="0-1" d="M57.85416793823242,605.5849681344605C63.973865880256916,605.8237973106384,70.09356382228141,606.0626264868164,76.21326176430591,606.0626264868164C82.33295970633041,606.0626264868164,88.4526576483549,603.4355055488587,94.5723555903794,603.4355055488587C100.6920535324039,603.4355055488587,106.8117514744284,606.0626264868164,112.9314494164529,606.0626264868164C119.06791365420898,606.0626264868164,125.20437789196505,605.7451698209371,131.34084212972112,605.3461389582825C137.4605400717456,604.9481983438865,143.58023801377013,603.6743347250366,149.69993595579461,603.6743347250366C155.8196338978191,603.6743347250366,161.93933183984362,604.3908222535706,168.0590297818681,604.3908222535706C174.1787277238926,604.3908222535706,180.2984256659171,603.1966763726807,186.4181236079416,603.1966763726807C192.55458784569765,603.1966763726807,198.69105208345374,604.1519930773926,204.8275163212098,604.1519930773926C210.94721426323432,604.1519930773926,217.0669122052588,600.808384610901,223.18661014728332,600.808384610901C229.3063080893078,600.808384610901,235.42600603133232,603.4355055488587,241.5457039733568,603.4355055488587C247.6654019153813,603.4355055488587,253.7850998574058,603.2762860980733,259.9047977994303,602.9578471965027C266.04126203718636,602.6385358595853,272.1777262749424,599.853067906189,278.3141905126985,599.853067906189C284.433888454723,599.853067906189,290.5535863967475,602.7190180203247,296.673284338772,602.7190180203247C302.79298228079654,602.7190180203247,308.912680222821,602.6394082949321,315.0323781648455,602.4801888441467C321.15207610687,602.3209693933613,327.2717740488945,597.4647761444093,333.391471990919,597.4647761444093C339.52793622867506,597.4647761444093,345.6644004664311,601.2860429632568,351.8008647041872,601.2860429632568C357.9205626462117,601.2860429632568,364.04026058823615,600.92779919899,370.15995853026067,600.330726258545C376.2796564722852,599.7336533181001,382.3993544143097,597.7036053205873,388.5190523563342,597.7036053205873C394.6387502983587,597.7036053205873,400.7584482403832,598.4200928491213,406.87814618240765,598.4200928491213C413.0146104201637,598.4200928491213,419.1510746579198,584.8068298069763,425.2875388956759,584.8068298069763C431.4072368377004,584.8068298069763,437.5269347797249,589.1057549781799,443.6466327217494,589.1057549781799C449.7663306637739,589.1057549781799,455.8860286057984,586.080585413259,462.00572654782286,585.0456589831545C468.1254244898474,584.0107325530499,474.2451224318719,582.8961963975526,480.3648203738964,582.8961963975526C486.50128461165247,582.8961963975526,492.6377488494085,588.8643084959617,498.7742130871646,589.8222425067139C504.89391102918904,590.7775592114258,511.01360897121356,590.9367786622112,517.133306913238,591.2552175637818C523.2530048552626,591.5736564653524,529.372702797287,591.7328759161378,535.4924007393116,591.7328759161378C541.6120986813361,591.7328759161378,547.7317966233607,589.8194175168697,553.8514945653851,588.3892674496461C559.9879588031412,586.9551991630602,566.1244230408972,584.2526152529415,572.2608872786533,583.1350255737306C578.3805852206777,582.0204894182333,584.5002831627023,582.458342907893,590.6199811047268,581.4632213404847C596.7396790467512,580.4680997730763,602.8593769887758,577.164296169281,608.9790749308003,577.164296169281C615.0987728728248,577.164296169281,621.2184708148493,577.7223247983296,627.3381687568739,578.119612873993C633.4746329946299,578.5179894101376,639.6110972323859,579.5525879310608,645.7475614701419,579.5525879310608C651.8672594121664,579.5525879310608,657.986957354191,569.9994208839416,664.1066552962154,569.9994208839416C670.2263532382399,569.9994208839416,676.3460511802645,579.3137587548829,682.4657491222889,579.3137587548829C688.5854470643135,579.3137587548829,694.705145006338,576.9254669931031,700.8248429483625,576.9254669931031C706.9613071861186,576.9254669931031,713.0977714238746,591.4940467399597,719.2342356616307,591.4940467399597C725.3539336036553,591.4940467399597,731.4736315456797,587.9116090972901,737.5933294877043,587.9116090972901C743.7130274297288,587.9116090972901,749.8327253717531,592.6881926208497,755.9524233137776,592.6881926208497C762.0721212558021,592.6881926208497,768.1918191978266,589.8210484173685,774.3115171398512,588.628096625824C780.4479813776072,587.4318764732068,786.5844456153633,585.5233173355103,792.7209098531193,585.5233173355103C798.8406077951439,585.5233173355103,804.9603057371684,587.8319993718975,811.0800036791929,588.1504382734681C817.1997016212174,588.4688771750388,823.319399563242,588.628096625824,829.4390975052664,588.628096625824C835.5587954472909,588.628096625824,841.6784933893152,584.5656115594418,847.7981913313397,582.6573672213746C853.9346555690959,580.7438948166276,860.0711198068519,577.164296169281,866.2075840446081,577.164296169281C872.3272819866326,577.164296169281,878.446979928657,582.1797088690187,884.5666778706815,582.1797088690187C890.686375812706,582.1797088690187,896.8060737547305,577.641954521637,902.9257716967551,577.641954521637C909.0454696387795,577.641954521637,915.1651675808041,577.880783697815,921.2848655228286,577.880783697815C927.4213297605846,577.880783697815,933.5577939983407,576.4141697536522,939.6942582360967,574.0595168789673C945.8139561781212,571.711297482082,951.9336541201458,570.636298687083,958.0533520621702,563.7898623033143C964.1730500041947,556.9434259195456,970.2927479462193,513.1580769535828,976.4124458882437,513.1580769535828C982.5321438302682,513.1580769535828,988.6518417722928,525.8160232910157,994.7715397143172,525.8160232910157C1000.9080039520733,525.8160232910157,1007.0444681898294,501.5928248574459,1013.1809324275855,489.036330159607C1019.30063036961,476.5141428243307,1025.4203283116344,476.21916437138884,1031.5400262536589,450.58483279495243C1037.6597241956833,424.95050121851574,1043.779422137708,334.75268234863285,1049.8991200797325,334.75268234863285C1056.018818021757,334.75268234863285,1062.1385159637816,341.91755763397225,1068.258213905806,341.91755763397225C1074.394678143562,341.91755763397225,1080.5311423813182,326.3278087241,1086.6676066190741,317.5569816638183C1092.7873045610986,308.8101186118979,1098.9070025031233,300.3214761163077,1105.0267004451478,289.3751388748169C1111.1463983871722,278.4288016333263,1117.2660963291967,265.6514407078043,1123.3857942712211,251.8789582148743C1129.5054922132456,238.10647572194412,1135.6251901552703,206.89902834219973,1141.7448880972947,206.74024391723628C1147.8813523350507,206.58102446645103,1154.0178165728069,206.5014147410584,1160.1542808105628,206.5014147410584C1166.2739787525873,206.5014147410584,1172.393676694612,257.6108584431458,1178.5133746366364,257.6108584431458C1184.6330725786609,257.6108584431458,1190.7527705206855,194.8783948337302,1196.87246846271,184.05147218032837C1202.9921664047345,173.2245495269267,1209.111864346759,167.81108820022584,1215.2315622887834,167.81108820022584C1221.3680265265393,167.81108820022584,1227.5044907642955,196.23176016540532,1233.6409550020514,196.23176016540532C1239.760652944076,196.23176016540532,1245.8803508861006,168.5275757287598,1252.000048828125,140.8233912921143"/></g><g class="fl-label" transform="translate(1259.4000244140625, 118.47449493408203)" font-size="18" font-weight="700" opacity="1" aria-hidden="true"><path fill="none" d="M 0,0 l 9.450000000000001,0 l 0,-3.225550276134186 l 9.450000000000001,0" stroke-width="0.075rem" stroke="#aaaaaa"/><text class="bg" transform="translate(23.399999618530273, 2.714449644088745)"><tspan x="0" fill="none" stroke="rgb(255, 255, 255)" stroke-width="4.14" dy="0">Babies named "Mia"</tspan></text><text class="fg" transform="translate(23.399999618530273, 2.714449644088745)"><tspan x="0" fill="rgb(0, 0, 0)" dy="0">Babies named "Mia"</tspan></text></g><g class="fl-label" transform="translate(1259.4000244140625, 140.82339477539062)" font-size="18" font-weight="700" opacity="1" aria-hidden="true"><path fill="none" d="M 0,0 l 9.450000000000001,0 l 0,3.225550276134186 l 9.450000000000001,0" stroke-width="0.075rem" stroke="#aaaaaa"/><text class="bg" transform="translate(23.399999618530273, 9.165550231933594)"><tspan x="0" fill="none" stroke="rgb(255, 255, 255)" stroke-width="4.14" dy="0">UFO sightings</tspan></text><text class="fg" transform="translate(23.399999618530273, 9.165550231933594)"><tspan x="0" fill="rgb(200, 64, 83)" dy="0">UFO sightings</tspan></text></g></g><g id="data-points"><g class="series" transform="translate(0,0)" clip-path="url(#facet-clip-0)"><path class="data-point" visibility="visible" fill="black" data-type="point" transform="translate(0, 0)" d="M52.45416793823242,606.6505136897161A5.3999999999999995,5.3999999999999995,0,1,1,63.25416793823242,606.6505136897161A5.3999999999999995,5.3999999999999995,0,1,1,52.45416793823242,606.6505136897161Z" opacity="1" id="point-0-0"/><path class="data-point" visibility="visible" fill="black" data-type="point" transform="translate(0, 0)" d="M70.8132617643059,606.4208702510834A5.3999999999999995,5.3999999999999995,0,1,1,81.61326176430592,606.4208702510834A5.3999999999999995,5.3999999999999995,0,1,1,70.8132617643059,606.4208702510834Z" opacity="1" id="point-0-1"/><path class="data-point" visibility="visible" fill="black" data-type="point" transform="translate(0, 0)" d="M89.1723555903794,606.3749415633569A5.3999999999999995,5.3999999999999995,0,1,1,99.97235559037941,606.3749415633569A5.3999999999999995,5.3999999999999995,0,1,1,89.1723555903794,606.3749415633569Z" opacity="1" id="point-0-2"/><path class="data-point" visibility="visible" fill="black" data-type="point" transform="translate(0, 0)" d="M107.5314494164529,606.1912268124507A5.3999999999999995,5.3999999999999995,0,1,1,118.33144941645291,606.1912268124507A5.3999999999999995,5.3999999999999995,0,1,1,107.5314494164529,606.1912268124507Z" opacity="1" id="point-0-3"/><path class="data-point" visibility="visible" fill="black" data-type="point" transform="translate(0, 0)" d="M125.94084212972112,605.9615833738181A5.3999999999999995,5.3999999999999995,0,1,1,136.74084212972113,605.9615833738181A5.3999999999999995,5.3999999999999995,0,1,1,125.94084212972112,605.9615833738181Z" opacity="1" id="point-0-4"/><path class="data-point" visibility="visible" fill="black" data-type="point" transform="translate(0, 0)" d="M144.2999359557946,606.0993694369978A5.3999999999999995,5.3999999999999995,0,1,1,155.09993595579462,606.0993694369978A5.3999999999999995,5.3999999999999995,0,1,1,144.2999359557946,606.0993694369978Z" opacity="1" id="point-0-5"/><path class="data-point" visibility="visible" fill="black" data-type="point" transform="translate(0, 0)" d="M162.6590297818681,605.7319399351854A5.3999999999999995,5.3999999999999995,0,1,1,173.4590297818681,605.7319399351854A5.3999999999999995,5.3999999999999995,0,1,1,162.6590297818681,605.7319399351854Z" opacity="1" id="point-0-6"/><path class="data-point" visibility="visible" fill="black" data-type="point" transform="translate(0, 0)" d="M181.0181236079416,605.5941538720058A5.3999999999999995,5.3999999999999995,0,1,1,191.8181236079416,605.5941538720058A5.3999999999999995,5.3999999999999995,0,1,1,181.0181236079416,605.5941538720058Z" opacity="1" id="point-0-7"/><path class="data-point" visibility="visible" fill="black" data-type="point" transform="translate(0, 0)" d="M199.4275163212098,605.5941538720058A5.3999999999999995,5.3999999999999995,0,1,1,210.2275163212098,605.5941538720058A5.3999999999999995,5.3999999999999995,0,1,1,199.4275163212098,605.5941538720058Z" opacity="1" id="point-0-8"/><path class="data-point" visibility="visible" fill="black" data-type="point" transform="translate(0, 0)" d="M217.7866101472833,604.9052235561079A5.3999999999999995,5.3999999999999995,0,1,1,228.58661014728332,604.9052235561079A5.3999999999999995,5.3999999999999995,0,1,1,217.7866101472833,604.9052235561079Z" opacity="1" id="point-0-9"/><path class="data-point" visibility="visible" fill="black" data-type="point" transform="translate(0, 0)" d="M236.1457039733568,605.0889383070139A5.3999999999999995,5.3999999999999995,0,1,1,246.9457039733568,605.0889383070139A5.3999999999999995,5.3999999999999995,0,1,1,236.1457039733568,605.0889383070139Z" opacity="1" id="point-0-10"/><path class="data-point" visibility="visible" fill="black" data-type="point" transform="translate(0, 0)" d="M254.5047977994303,605.2267243701936A5.3999999999999995,5.3999999999999995,0,1,1,265.3047977994303,605.2267243701936A5.3999999999999995,5.3999999999999995,0,1,1,254.5047977994303,605.2267243701936Z" opacity="1" id="point-0-11"/><path class="data-point" visibility="visible" fill="black" data-type="point" transform="translate(0, 0)" d="M272.9141905126985,605.1807956824671A5.3999999999999995,5.3999999999999995,0,1,1,283.71419051269845,605.1807956824671A5.3999999999999995,5.3999999999999995,0,1,1,272.9141905126985,605.1807956824671Z" opacity="1" id="point-0-12"/><path class="data-point" visibility="visible" fill="black" data-type="point" transform="translate(0, 0)" d="M291.27328433877204,605.5022964965528A5.3999999999999995,5.3999999999999995,0,1,1,302.073284338772,605.5022964965528A5.3999999999999995,5.3999999999999995,0,1,1,291.27328433877204,605.5022964965528Z" opacity="1" id="point-0-13"/><path class="data-point" visibility="visible" fill="black" data-type="point" transform="translate(0, 0)" d="M309.63237816484553,604.6755801174752A5.3999999999999995,5.3999999999999995,0,1,1,320.4323781648455,604.6755801174752A5.3999999999999995,5.3999999999999995,0,1,1,309.63237816484553,604.6755801174752Z" opacity="1" id="point-0-14"/><path class="data-point" visibility="visible" fill="black" data-type="point" transform="translate(0, 0)" d="M327.991471990919,604.6296514297486A5.3999999999999995,5.3999999999999995,0,1,1,338.791471990919,604.6296514297486A5.3999999999999995,5.3999999999999995,0,1,1,327.991471990919,604.6296514297486Z" opacity="1" id="point-0-15"/><path class="data-point" visibility="visible" fill="black" data-type="point" transform="translate(0, 0)" d="M346.4008647041872,604.8133661806548A5.3999999999999995,5.3999999999999995,0,1,1,357.20086470418715,604.8133661806548A5.3999999999999995,5.3999999999999995,0,1,1,346.4008647041872,604.8133661806548Z" opacity="1" id="point-0-16"/><path class="data-point" visibility="visible" fill="black" data-type="point" transform="translate(0, 0)" d="M364.7599585302607,603.114004734773A5.3999999999999995,5.3999999999999995,0,1,1,375.55995853026064,603.114004734773A5.3999999999999995,5.3999999999999995,0,1,1,364.7599585302607,603.114004734773Z" opacity="1" id="point-0-17"/><path class="data-point" visibility="visible" fill="black" data-type="point" transform="translate(0, 0)" d="M383.11905235633424,602.2413596679688A5.3999999999999995,5.3999999999999995,0,1,1,393.9190523563342,602.2413596679688A5.3999999999999995,5.3999999999999995,0,1,1,383.11905235633424,602.2413596679688Z" opacity="1" id="point-0-18"/><path class="data-point" visibility="visible" fill="black" data-type="point" transform="translate(0, 0)" d="M401.47814618240767,593.2393368735682A5.3999999999999995,5.3999999999999995,0,1,1,412.2781461824076,593.2393368735682A5.3999999999999995,5.3999999999999995,0,1,1,401.47814618240767,593.2393368735682Z" opacity="1" id="point-0-19"/><path class="data-point" visibility="visible" fill="black" data-type="point" transform="translate(0, 0)" d="M419.8875388956759,558.6550350154878A5.3999999999999995,5.3999999999999995,0,1,1,430.68753889567586,558.6550350154878A5.3999999999999995,5.3999999999999995,0,1,1,419.8875388956759,558.6550350154878Z" opacity="1" id="point-0-20"/><path class="data-point" visibility="visible" fill="black" data-type="point" transform="translate(0, 0)" d="M438.24663272174945,573.9033593406971A5.3999999999999995,5.3999999999999995,0,1,1,449.0466327217494,573.9033593406971A5.3999999999999995,5.3999999999999995,0,1,1,438.24663272174945,573.9033593406971Z" opacity="1" id="point-0-21"/><path class="data-point" visibility="visible" fill="black" data-type="point" transform="translate(0, 0)" d="M456.6057265478229,573.1225716493461A5.3999999999999995,5.3999999999999995,0,1,1,467.40572654782284,573.1225716493461A5.3999999999999995,5.3999999999999995,0,1,1,456.6057265478229,573.1225716493461Z" opacity="1" id="point-0-22"/><path class="data-point" visibility="visible" fill="black" data-type="point" transform="translate(0, 0)" d="M474.96482037389643,575.694578162032A5.3999999999999995,5.3999999999999995,0,1,1,485.7648203738964,575.694578162032A5.3999999999999995,5.3999999999999995,0,1,1,474.96482037389643,575.694578162032Z" opacity="1" id="point-0-23"/><path class="data-point" visibility="visible" fill="black" data-type="point" transform="translate(0, 0)" d="M493.3742130871646,585.7988894618695A5.3999999999999995,5.3999999999999995,0,1,1,504.17421308716456,585.7988894618695A5.3999999999999995,5.3999999999999995,0,1,1,493.3742130871646,585.7988894618695Z" opacity="1" id="point-0-24"/><path class="data-point" visibility="visible" fill="black" data-type="point" transform="translate(0, 0)" d="M511.73330691323804,584.6506722687062A5.3999999999999995,5.3999999999999995,0,1,1,522.533306913238,584.6506722687062A5.3999999999999995,5.3999999999999995,0,1,1,511.73330691323804,584.6506722687062Z" opacity="1" id="point-0-25"/><path class="data-point" visibility="visible" fill="black" data-type="point" transform="translate(0, 0)" d="M530.0924007393116,584.8803157073388A5.3999999999999995,5.3999999999999995,0,1,1,540.8924007393116,584.8803157073388A5.3999999999999995,5.3999999999999995,0,1,1,530.0924007393116,584.8803157073388Z" opacity="1" id="point-0-26"/><path class="data-point" visibility="visible" fill="black" data-type="point" transform="translate(0, 0)" d="M548.4514945653851,587.9116090972901A5.3999999999999995,5.3999999999999995,0,1,1,559.2514945653851,587.9116090972901A5.3999999999999995,5.3999999999999995,0,1,1,548.4514945653851,587.9116090972901Z" opacity="1" id="point-0-27"/><path class="data-point" visibility="visible" fill="black" data-type="point" transform="translate(0, 0)" d="M566.8608872786533,590.9888311749679A5.3999999999999995,5.3999999999999995,0,1,1,577.6608872786533,590.9888311749679A5.3999999999999995,5.3999999999999995,0,1,1,566.8608872786533,590.9888311749679Z" opacity="1" id="point-0-28"/><path class="data-point" visibility="visible" fill="black" data-type="point" transform="translate(0, 0)" d="M585.2199811047268,589.1057549781799A5.3999999999999995,5.3999999999999995,0,1,1,596.0199811047268,589.1057549781799A5.3999999999999995,5.3999999999999995,0,1,1,585.2199811047268,589.1057549781799Z" opacity="1" id="point-0-29"/><path class="data-point" visibility="visible" fill="black" data-type="point" transform="translate(0, 0)" d="M603.5790749308003,590.1161861081638A5.3999999999999995,5.3999999999999995,0,1,1,614.3790749308002,590.1161861081638A5.3999999999999995,5.3999999999999995,0,1,1,603.5790749308003,590.1161861081638Z" opacity="1" id="point-0-30"/><path class="data-point" visibility="visible" fill="black" data-type="point" transform="translate(0, 0)" d="M621.9381687568739,590.7132590486087A5.3999999999999995,5.3999999999999995,0,1,1,632.7381687568738,590.7132590486087A5.3999999999999995,5.3999999999999995,0,1,1,621.9381687568739,590.7132590486087Z" opacity="1" id="point-0-31"/><path class="data-point" visibility="visible" fill="black" data-type="point" transform="translate(0, 0)" d="M640.347561470142,586.6715345286736A5.3999999999999995,5.3999999999999995,0,1,1,651.1475614701419,586.6715345286736A5.3999999999999995,5.3999999999999995,0,1,1,640.347561470142,586.6715345286736Z" opacity="1" id="point-0-32"/><path class="data-point" visibility="visible" fill="black" data-type="point" transform="translate(0, 0)" d="M658.7066552962154,582.9972395105509A5.3999999999999995,5.3999999999999995,0,1,1,669.5066552962154,582.9972395105509A5.3999999999999995,5.3999999999999995,0,1,1,658.7066552962154,582.9972395105509Z" opacity="1" id="point-0-33"/><path class="data-point" visibility="visible" fill="black" data-type="point" transform="translate(0, 0)" d="M677.0657491222889,579.3688731801548A5.3999999999999995,5.3999999999999995,0,1,1,687.8657491222889,579.3688731801548A5.3999999999999995,5.3999999999999995,0,1,1,677.0657491222889,579.3688731801548Z" opacity="1" id="point-0-34"/><path class="data-point" visibility="visible" fill="black" data-type="point" transform="translate(0, 0)" d="M695.4248429483625,575.7864355374851A5.3999999999999995,5.3999999999999995,0,1,1,706.2248429483625,575.7864355374851A5.3999999999999995,5.3999999999999995,0,1,1,695.4248429483625,575.7864355374851Z" opacity="1" id="point-0-35"/><path class="data-point" visibility="visible" fill="black" data-type="point" transform="translate(0, 0)" d="M713.8342356616307,574.0411454038767A5.3999999999999995,5.3999999999999995,0,1,1,724.6342356616307,574.0411454038767A5.3999999999999995,5.3999999999999995,0,1,1,713.8342356616307,574.0411454038767Z" opacity="1" id="point-0-36"/><path class="data-point" visibility="visible" fill="black" data-type="point" transform="translate(0, 0)" d="M732.1933294877043,581.8490223173876A5.3999999999999995,5.3999999999999995,0,1,1,742.9933294877043,581.8490223173876A5.3999999999999995,5.3999999999999995,0,1,1,732.1933294877043,581.8490223173876Z" opacity="1" id="point-0-37"/><path class="data-point" visibility="visible" fill="black" data-type="point" transform="translate(0, 0)" d="M750.5524233137776,585.3855312723307A5.3999999999999995,5.3999999999999995,0,1,1,761.3524233137775,585.3855312723307A5.3999999999999995,5.3999999999999995,0,1,1,750.5524233137776,585.3855312723307Z" opacity="1" id="point-0-38"/><path class="data-point" visibility="visible" fill="black" data-type="point" transform="translate(0, 0)" d="M768.9115171398512,586.2581763391349A5.3999999999999995,5.3999999999999995,0,1,1,779.7115171398511,586.2581763391349A5.3999999999999995,5.3999999999999995,0,1,1,768.9115171398512,586.2581763391349Z" opacity="1" id="point-0-39"/><path class="data-point" visibility="visible" fill="black" data-type="point" transform="translate(0, 0)" d="M787.3209098531194,584.0995280159877A5.3999999999999995,5.3999999999999995,0,1,1,798.1209098531193,584.0995280159877A5.3999999999999995,5.3999999999999995,0,1,1,787.3209098531194,584.0995280159877Z" opacity="1" id="point-0-40"/><path class="data-point" visibility="visible" fill="black" data-type="point" transform="translate(0, 0)" d="M805.680003679193,584.4669575178001A5.3999999999999995,5.3999999999999995,0,1,1,816.4800036791929,584.4669575178001A5.3999999999999995,5.3999999999999995,0,1,1,805.680003679193,584.4669575178001Z" opacity="1" id="point-0-41"/><path class="data-point" visibility="visible" fill="black" data-type="point" transform="translate(0, 0)" d="M824.0390975052665,582.0327370682936A5.3999999999999995,5.3999999999999995,0,1,1,834.8390975052664,582.0327370682936A5.3999999999999995,5.3999999999999995,0,1,1,824.0390975052665,582.0327370682936Z" opacity="1" id="point-0-42"/><path class="data-point" visibility="visible" fill="black" data-type="point" transform="translate(0, 0)" d="M842.3981913313397,578.5421568010771A5.3999999999999995,5.3999999999999995,0,1,1,853.1981913313397,578.5421568010771A5.3999999999999995,5.3999999999999995,0,1,1,842.3981913313397,578.5421568010771Z" opacity="1" id="point-0-43"/><path class="data-point" visibility="visible" fill="black" data-type="point" transform="translate(0, 0)" d="M860.8075840446081,576.7968666674689A5.3999999999999995,5.3999999999999995,0,1,1,871.6075840446081,576.7968666674689A5.3999999999999995,5.3999999999999995,0,1,1,860.8075840446081,576.7968666674689Z" opacity="1" id="point-0-44"/><path class="data-point" visibility="visible" fill="black" data-type="point" transform="translate(0, 0)" d="M879.1666778706815,571.1935667648315A5.3999999999999995,5.3999999999999995,0,1,1,889.9666778706815,571.1935667648315A5.3999999999999995,5.3999999999999995,0,1,1,879.1666778706815,571.1935667648315Z" opacity="1" id="point-0-45"/><path class="data-point" visibility="visible" fill="black" data-type="point" transform="translate(0, 0)" d="M897.5257716967551,571.2394954525581A5.3999999999999995,5.3999999999999995,0,1,1,908.325771696755,571.2394954525581A5.3999999999999995,5.3999999999999995,0,1,1,897.5257716967551,571.2394954525581Z" opacity="1" id="point-0-46"/><path class="data-point" visibility="visible" fill="black" data-type="point" transform="translate(0, 0)" d="M915.8848655228286,569.3104905680437A5.3999999999999995,5.3999999999999995,0,1,1,926.6848655228285,569.3104905680437A5.3999999999999995,5.3999999999999995,0,1,1,915.8848655228286,569.3104905680437Z" opacity="1" id="point-0-47"/><path class="data-point" visibility="visible" fill="black" data-type="point" transform="translate(0, 0)" d="M934.2942582360968,570.5505651366601A5.3999999999999995,5.3999999999999995,0,1,1,945.0942582360967,570.5505651366601A5.3999999999999995,5.3999999999999995,0,1,1,934.2942582360968,570.5505651366601Z" opacity="1" id="point-0-48"/><path class="data-point" visibility="visible" fill="black" data-type="point" transform="translate(0, 0)" d="M952.6533520621703,567.5652004344355A5.3999999999999995,5.3999999999999995,0,1,1,963.4533520621702,567.5652004344355A5.3999999999999995,5.3999999999999995,0,1,1,952.6533520621703,567.5652004344355Z" opacity="1" id="point-0-49"/><path class="data-point" visibility="visible" fill="black" data-type="point" transform="translate(0, 0)" d="M971.0124458882437,556.4045293168875A5.3999999999999995,5.3999999999999995,0,1,1,981.8124458882437,556.4045293168875A5.3999999999999995,5.3999999999999995,0,1,1,971.0124458882437,556.4045293168875Z" opacity="1" id="point-0-50"/><path class="data-point" visibility="visible" fill="black" data-type="point" transform="translate(0, 0)" d="M989.3715397143172,529.4443896214119A5.3999999999999995,5.3999999999999995,0,1,1,1000.1715397143172,529.4443896214119A5.3999999999999995,5.3999999999999995,0,1,1,989.3715397143172,529.4443896214119Z" opacity="1" id="point-0-51"/><path class="data-point" visibility="visible" fill="black" data-type="point" transform="translate(0, 0)" d="M1007.7809324275855,492.5177246892783A5.3999999999999995,5.3999999999999995,0,1,1,1018.5809324275855,492.5177246892783A5.3999999999999995,5.3999999999999995,0,1,1,1007.7809324275855,492.5177246892783Z" opacity="1" id="point-0-52"/><path class="data-point" visibility="visible" fill="black" data-type="point" transform="translate(0, 0)" d="M1026.1400262536588,489.16493048524126A5.3999999999999995,5.3999999999999995,0,1,1,1036.940026253659,489.16493048524126A5.3999999999999995,5.3999999999999995,0,1,1,1026.1400262536588,489.16493048524126Z" opacity="1" id="point-0-53"/><path class="data-point" visibility="visible" fill="black" data-type="point" transform="translate(0, 0)" d="M1044.4991200797324,481.3111248840039A5.3999999999999995,5.3999999999999995,0,1,1,1055.2991200797326,481.3111248840039A5.3999999999999995,5.3999999999999995,0,1,1,1044.4991200797324,481.3111248840039Z" opacity="1" id="point-0-54"/><path class="data-point" visibility="visible" fill="black" data-type="point" transform="translate(0, 0)" d="M1062.858213905806,448.5180418472584A5.3999999999999995,5.3999999999999995,0,1,1,1073.6582139058062,448.5180418472584A5.3999999999999995,5.3999999999999995,0,1,1,1062.858213905806,448.5180418472584Z" opacity="1" id="point-0-55"/><path class="data-point" visibility="visible" fill="black" data-type="point" transform="translate(0, 0)" d="M1081.267606619074,427.0693446789669A5.3999999999999995,5.3999999999999995,0,1,1,1092.0676066190742,427.0693446789669A5.3999999999999995,5.3999999999999995,0,1,1,1081.267606619074,427.0693446789669Z" opacity="1" id="point-0-56"/><path class="data-point" visibility="visible" fill="black" data-type="point" transform="translate(0, 0)" d="M1099.6267004451477,319.642144086603A5.3999999999999995,5.3999999999999995,0,1,1,1110.4267004451478,319.642144086603A5.3999999999999995,5.3999999999999995,0,1,1,1099.6267004451477,319.642144086603Z" opacity="1" id="point-0-57"/><path class="data-point" visibility="visible" fill="black" data-type="point" transform="translate(0, 0)" d="M1117.985794271221,281.79690539993874A5.3999999999999995,5.3999999999999995,0,1,1,1128.7857942712212,281.79690539993874A5.3999999999999995,5.3999999999999995,0,1,1,1117.985794271221,281.79690539993874Z" opacity="1" id="point-0-58"/><path class="data-point" visibility="visible" fill="black" data-type="point" transform="translate(0, 0)" d="M1136.3448880972946,267.2834400783539A5.3999999999999995,5.3999999999999995,0,1,1,1147.1448880972948,267.2834400783539A5.3999999999999995,5.3999999999999995,0,1,1,1136.3448880972946,267.2834400783539Z" opacity="1" id="point-0-59"/><path class="data-point" visibility="visible" fill="black" data-type="point" transform="translate(0, 0)" d="M1154.7542808105627,109.01318217271661A5.3999999999999995,5.3999999999999995,0,1,1,1165.554280810563,109.01318217271661A5.3999999999999995,5.3999999999999995,0,1,1,1154.7542808105627,109.01318217271661Z" opacity="1" id="point-0-60"/><path class="data-point" visibility="visible" fill="black" data-type="point" transform="translate(0, 0)" d="M1173.1133746366363,54.77140196767952A5.3999999999999995,5.3999999999999995,0,1,1,1183.9133746366365,54.77140196767952A5.3999999999999995,5.3999999999999995,0,1,1,1173.1133746366363,54.77140196767952Z" opacity="1" id="point-0-61"/><path class="data-point" visibility="visible" fill="black" data-type="point" transform="translate(0, 0)" d="M1191.47246846271,105.7063166564061A5.3999999999999995,5.3999999999999995,0,1,1,1202.27246846271,105.7063166564061A5.3999999999999995,5.3999999999999995,0,1,1,1191.47246846271,105.7063166564061Z" opacity="1" id="point-0-62"/><path class="data-point" visibility="visible" fill="black" data-type="point" transform="translate(0, 0)" d="M1209.8315622887833,140.01504638812725A5.3999999999999995,5.3999999999999995,0,1,1,1220.6315622887835,140.01504638812725A5.3999999999999995,5.3999999999999995,0,1,1,1209.8315622887833,140.01504638812725Z" opacity="1" id="point-0-63"/><path class="data-point" visibility="visible" fill="black" data-type="point" transform="translate(0, 0)" d="M1228.2409550020514,82.37454329132669A5.3999999999999995,5.3999999999999995,0,1,1,1239.0409550020515,82.37454329132669A5.3999999999999995,5.3999999999999995,0,1,1,1228.2409550020514,82.37454329132669Z" opacity="1" id="point-0-64"/><path class="data-point" visibility="visible" fill="black" data-type="point" transform="translate(0, 0)" d="M1246.600048828125,118.47449184438268A5.3999999999999995,5.3999999999999995,0,1,1,1257.4000488281251,118.47449184438268A5.3999999999999995,5.3999999999999995,0,1,1,1246.600048828125,118.47449184438268Z" opacity="1" id="point-0-65"/></g><g class="series" transform="translate(0,0)" clip-path="url(#facet-clip-0)"><path class="data-point" visibility="visible" fill="rgb(200, 64, 83)" data-type="point" transform="translate(0, 0)" d="M52.45416793823242,605.5849681344605A5.3999999999999995,5.3999999999999995,0,1,1,63.25416793823242,605.5849681344605A5.3999999999999995,5.3999999999999995,0,1,1,52.45416793823242,605.5849681344605Z" opacity="1" id="point-1-0"/><path class="data-point" visibility="visible" fill="rgb(200, 64, 83)" data-type="point" transform="translate(0, 0)" d="M70.8132617643059,606.0626264868164A5.3999999999999995,5.3999999999999995,0,1,1,81.61326176430592,606.0626264868164A5.3999999999999995,5.3999999999999995,0,1,1,70.8132617643059,606.0626264868164Z" opacity="1" id="point-1-1"/><path class="data-point" visibility="visible" fill="rgb(200, 64, 83)" data-type="point" transform="translate(0, 0)" d="M89.1723555903794,603.4355055488587A5.3999999999999995,5.3999999999999995,0,1,1,99.97235559037941,603.4355055488587A5.3999999999999995,5.3999999999999995,0,1,1,89.1723555903794,603.4355055488587Z" opacity="1" id="point-1-2"/><path class="data-point" visibility="visible" fill="rgb(200, 64, 83)" data-type="point" transform="translate(0, 0)" d="M107.5314494164529,606.0626264868164A5.3999999999999995,5.3999999999999995,0,1,1,118.33144941645291,606.0626264868164A5.3999999999999995,5.3999999999999995,0,1,1,107.5314494164529,606.0626264868164Z" opacity="1" id="point-1-3"/><path class="data-point" visibility="visible" fill="rgb(200, 64, 83)" data-type="point" transform="translate(0, 0)" d="M125.94084212972112,605.3461389582825A5.3999999999999995,5.3999999999999995,0,1,1,136.74084212972113,605.3461389582825A5.3999999999999995,5.3999999999999995,0,1,1,125.94084212972112,605.3461389582825Z" opacity="1" id="point-1-4"/><path class="data-point" visibility="visible" fill="rgb(200, 64, 83)" data-type="point" transform="translate(0, 0)" d="M144.2999359557946,603.6743347250366A5.3999999999999995,5.3999999999999995,0,1,1,155.09993595579462,603.6743347250366A5.3999999999999995,5.3999999999999995,0,1,1,144.2999359557946,603.6743347250366Z" opacity="1" id="point-1-5"/><path class="data-point" visibility="visible" fill="rgb(200, 64, 83)" data-type="point" transform="translate(0, 0)" d="M162.6590297818681,604.3908222535706A5.3999999999999995,5.3999999999999995,0,1,1,173.4590297818681,604.3908222535706A5.3999999999999995,5.3999999999999995,0,1,1,162.6590297818681,604.3908222535706Z" opacity="1" id="point-1-6"/><path class="data-point" visibility="visible" fill="rgb(200, 64, 83)" data-type="point" transform="translate(0, 0)" d="M181.0181236079416,603.1966763726807A5.3999999999999995,5.3999999999999995,0,1,1,191.8181236079416,603.1966763726807A5.3999999999999995,5.3999999999999995,0,1,1,181.0181236079416,603.1966763726807Z" opacity="1" id="point-1-7"/><path class="data-point" visibility="visible" fill="rgb(200, 64, 83)" data-type="point" transform="translate(0, 0)" d="M199.4275163212098,604.1519930773926A5.3999999999999995,5.3999999999999995,0,1,1,210.2275163212098,604.1519930773926A5.3999999999999995,5.3999999999999995,0,1,1,199.4275163212098,604.1519930773926Z" opacity="1" id="point-1-8"/><path class="data-point" visibility="visible" fill="rgb(200, 64, 83)" data-type="point" transform="translate(0, 0)" d="M217.7866101472833,600.808384610901A5.3999999999999995,5.3999999999999995,0,1,1,228.58661014728332,600.808384610901A5.3999999999999995,5.3999999999999995,0,1,1,217.7866101472833,600.808384610901Z" opacity="1" id="point-1-9"/><path class="data-point" visibility="visible" fill="rgb(200, 64, 83)" data-type="point" transform="translate(0, 0)" d="M236.1457039733568,603.4355055488587A5.3999999999999995,5.3999999999999995,0,1,1,246.9457039733568,603.4355055488587A5.3999999999999995,5.3999999999999995,0,1,1,236.1457039733568,603.4355055488587Z" opacity="1" id="point-1-10"/><path class="data-point" visibility="visible" fill="rgb(200, 64, 83)" data-type="point" transform="translate(0, 0)" d="M254.5047977994303,602.9578471965027A5.3999999999999995,5.3999999999999995,0,1,1,265.3047977994303,602.9578471965027A5.3999999999999995,5.3999999999999995,0,1,1,254.5047977994303,602.9578471965027Z" opacity="1" id="point-1-11"/><path class="data-point" visibility="visible" fill="rgb(200, 64, 83)" data-type="point" transform="translate(0, 0)" d="M272.9141905126985,599.853067906189A5.3999999999999995,5.3999999999999995,0,1,1,283.71419051269845,599.853067906189A5.3999999999999995,5.3999999999999995,0,1,1,272.9141905126985,599.853067906189Z" opacity="1" id="point-1-12"/><path class="data-point" visibility="visible" fill="rgb(200, 64, 83)" data-type="point" transform="translate(0, 0)" d="M291.27328433877204,602.7190180203247A5.3999999999999995,5.3999999999999995,0,1,1,302.073284338772,602.7190180203247A5.3999999999999995,5.3999999999999995,0,1,1,291.27328433877204,602.7190180203247Z" opacity="1" id="point-1-13"/><path class="data-point" visibility="visible" fill="rgb(200, 64, 83)" data-type="point" transform="translate(0, 0)" d="M309.63237816484553,602.4801888441467A5.3999999999999995,5.3999999999999995,0,1,1,320.4323781648455,602.4801888441467A5.3999999999999995,5.3999999999999995,0,1,1,309.63237816484553,602.4801888441467Z" opacity="1" id="point-1-14"/><path class="data-point" visibility="visible" fill="rgb(200, 64, 83)" data-type="point" transform="translate(0, 0)" d="M327.991471990919,597.4647761444093A5.3999999999999995,5.3999999999999995,0,1,1,338.791471990919,597.4647761444093A5.3999999999999995,5.3999999999999995,0,1,1,327.991471990919,597.4647761444093Z" opacity="1" id="point-1-15"/><path class="data-point" visibility="visible" fill="rgb(200, 64, 83)" data-type="point" transform="translate(0, 0)" d="M346.4008647041872,601.2860429632568A5.3999999999999995,5.3999999999999995,0,1,1,357.20086470418715,601.2860429632568A5.3999999999999995,5.3999999999999995,0,1,1,346.4008647041872,601.2860429632568Z" opacity="1" id="point-1-16"/><path class="data-point" visibility="visible" fill="rgb(200, 64, 83)" data-type="point" transform="translate(0, 0)" d="M364.7599585302607,600.330726258545A5.3999999999999995,5.3999999999999995,0,1,1,375.55995853026064,600.330726258545A5.3999999999999995,5.3999999999999995,0,1,1,364.7599585302607,600.330726258545Z" opacity="1" id="point-1-17"/><path class="data-point" visibility="visible" fill="rgb(200, 64, 83)" data-type="point" transform="translate(0, 0)" d="M383.11905235633424,597.7036053205873A5.3999999999999995,5.3999999999999995,0,1,1,393.9190523563342,597.7036053205873A5.3999999999999995,5.3999999999999995,0,1,1,383.11905235633424,597.7036053205873Z" opacity="1" id="point-1-18"/><path class="data-point" visibility="visible" fill="rgb(200, 64, 83)" data-type="point" transform="translate(0, 0)" d="M401.47814618240767,598.4200928491213A5.3999999999999995,5.3999999999999995,0,1,1,412.2781461824076,598.4200928491213A5.3999999999999995,5.3999999999999995,0,1,1,401.47814618240767,598.4200928491213Z" opacity="1" id="point-1-19"/><path class="data-point" visibility="visible" fill="rgb(200, 64, 83)" data-type="point" transform="translate(0, 0)" d="M419.8875388956759,584.8068298069763A5.3999999999999995,5.3999999999999995,0,1,1,430.68753889567586,584.8068298069763A5.3999999999999995,5.3999999999999995,0,1,1,419.8875388956759,584.8068298069763Z" opacity="1" id="point-1-20"/><path class="data-point" visibility="visible" fill="rgb(200, 64, 83)" data-type="point" transform="translate(0, 0)" d="M438.24663272174945,589.1057549781799A5.3999999999999995,5.3999999999999995,0,1,1,449.0466327217494,589.1057549781799A5.3999999999999995,5.3999999999999995,0,1,1,438.24663272174945,589.1057549781799Z" opacity="1" id="point-1-21"/><path class="data-point" visibility="visible" fill="rgb(200, 64, 83)" data-type="point" transform="translate(0, 0)" d="M456.6057265478229,585.0456589831545A5.3999999999999995,5.3999999999999995,0,1,1,467.40572654782284,585.0456589831545A5.3999999999999995,5.3999999999999995,0,1,1,456.6057265478229,585.0456589831545Z" opacity="1" id="point-1-22"/><path class="data-point" visibility="visible" fill="rgb(200, 64, 83)" data-type="point" transform="translate(0, 0)" d="M474.96482037389643,582.8961963975526A5.3999999999999995,5.3999999999999995,0,1,1,485.7648203738964,582.8961963975526A5.3999999999999995,5.3999999999999995,0,1,1,474.96482037389643,582.8961963975526Z" opacity="1" id="point-1-23"/><path class="data-point" visibility="visible" fill="rgb(200, 64, 83)" data-type="point" transform="translate(0, 0)" d="M493.3742130871646,589.8222425067139A5.3999999999999995,5.3999999999999995,0,1,1,504.17421308716456,589.8222425067139A5.3999999999999995,5.3999999999999995,0,1,1,493.3742130871646,589.8222425067139Z" opacity="1" id="point-1-24"/><path class="data-point" visibility="visible" fill="rgb(200, 64, 83)" data-type="point" transform="translate(0, 0)" d="M511.73330691323804,591.2552175637818A5.3999999999999995,5.3999999999999995,0,1,1,522.533306913238,591.2552175637818A5.3999999999999995,5.3999999999999995,0,1,1,511.73330691323804,591.2552175637818Z" opacity="1" id="point-1-25"/><path class="data-point" visibility="visible" fill="rgb(200, 64, 83)" data-type="point" transform="translate(0, 0)" d="M530.0924007393116,591.7328759161378A5.3999999999999995,5.3999999999999995,0,1,1,540.8924007393116,591.7328759161378A5.3999999999999995,5.3999999999999995,0,1,1,530.0924007393116,591.7328759161378Z" opacity="1" id="point-1-26"/><path class="data-point" visibility="visible" fill="rgb(200, 64, 83)" data-type="point" transform="translate(0, 0)" d="M548.4514945653851,588.3892674496461A5.3999999999999995,5.3999999999999995,0,1,1,559.2514945653851,588.3892674496461A5.3999999999999995,5.3999999999999995,0,1,1,548.4514945653851,588.3892674496461Z" opacity="1" id="point-1-27"/><path class="data-point" visibility="visible" fill="rgb(200, 64, 83)" data-type="point" transform="translate(0, 0)" d="M566.8608872786533,583.1350255737306A5.3999999999999995,5.3999999999999995,0,1,1,577.6608872786533,583.1350255737306A5.3999999999999995,5.3999999999999995,0,1,1,566.8608872786533,583.1350255737306Z" opacity="1" id="point-1-28"/><path class="data-point" visibility="visible" fill="rgb(200, 64, 83)" data-type="point" transform="translate(0, 0)" d="M585.2199811047268,581.4632213404847A5.3999999999999995,5.3999999999999995,0,1,1,596.0199811047268,581.4632213404847A5.3999999999999995,5.3999999999999995,0,1,1,585.2199811047268,581.4632213404847Z" opacity="1" id="point-1-29"/><path class="data-point" visibility="visible" fill="rgb(200, 64, 83)" data-type="point" transform="translate(0, 0)" d="M603.5790749308003,577.164296169281A5.3999999999999995,5.3999999999999995,0,1,1,614.3790749308002,577.164296169281A5.3999999999999995,5.3999999999999995,0,1,1,603.5790749308003,577.164296169281Z" opacity="1" id="point-1-30"/><path class="data-point" visibility="visible" fill="rgb(200, 64, 83)" data-type="point" transform="translate(0, 0)" d="M621.9381687568739,578.119612873993A5.3999999999999995,5.3999999999999995,0,1,1,632.7381687568738,578.119612873993A5.3999999999999995,5.3999999999999995,0,1,1,621.9381687568739,578.119612873993Z" opacity="1" id="point-1-31"/><path class="data-point" visibility="visible" fill="rgb(200, 64, 83)" data-type="point" transform="translate(0, 0)" d="M640.347561470142,579.5525879310608A5.3999999999999995,5.3999999999999995,0,1,1,651.1475614701419,579.5525879310608A5.3999999999999995,5.3999999999999995,0,1,1,640.347561470142,579.5525879310608Z" opacity="1" id="point-1-32"/><path class="data-point" visibility="visible" fill="rgb(200, 64, 83)" data-type="point" transform="translate(0, 0)" d="M658.7066552962154,569.9994208839416A5.3999999999999995,5.3999999999999995,0,1,1,669.5066552962154,569.9994208839416A5.3999999999999995,5.3999999999999995,0,1,1,658.7066552962154,569.9994208839416Z" opacity="1" id="point-1-33"/><path class="data-point" visibility="visible" fill="rgb(200, 64, 83)" data-type="point" transform="translate(0, 0)" d="M677.0657491222889,579.3137587548829A5.3999999999999995,5.3999999999999995,0,1,1,687.8657491222889,579.3137587548829A5.3999999999999995,5.3999999999999995,0,1,1,677.0657491222889,579.3137587548829Z" opacity="1" id="point-1-34"/><path class="data-point" visibility="visible" fill="rgb(200, 64, 83)" data-type="point" transform="translate(0, 0)" d="M695.4248429483625,576.9254669931031A5.3999999999999995,5.3999999999999995,0,1,1,706.2248429483625,576.9254669931031A5.3999999999999995,5.3999999999999995,0,1,1,695.4248429483625,576.9254669931031Z" opacity="1" id="point-1-35"/><path class="data-point" visibility="visible" fill="rgb(200, 64, 83)" data-type="point" transform="translate(0, 0)" d="M713.8342356616307,591.4940467399597A5.3999999999999995,5.3999999999999995,0,1,1,724.6342356616307,591.4940467399597A5.3999999999999995,5.3999999999999995,0,1,1,713.8342356616307,591.4940467399597Z" opacity="1" id="point-1-36"/><path class="data-point" visibility="visible" fill="rgb(200, 64, 83)" data-type="point" transform="translate(0, 0)" d="M732.1933294877043,587.9116090972901A5.3999999999999995,5.3999999999999995,0,1,1,742.9933294877043,587.9116090972901A5.3999999999999995,5.3999999999999995,0,1,1,732.1933294877043,587.9116090972901Z" opacity="1" id="point-1-37"/><path class="data-point" visibility="visible" fill="rgb(200, 64, 83)" data-type="point" transform="translate(0, 0)" d="M750.5524233137776,592.6881926208497A5.3999999999999995,5.3999999999999995,0,1,1,761.3524233137775,592.6881926208497A5.3999999999999995,5.3999999999999995,0,1,1,750.5524233137776,592.6881926208497Z" opacity="1" id="point-1-38"/><path class="data-point" visibility="visible" fill="rgb(200, 64, 83)" data-type="point" transform="translate(0, 0)" d="M768.9115171398512,588.628096625824A5.3999999999999995,5.3999999999999995,0,1,1,779.7115171398511,588.628096625824A5.3999999999999995,5.3999999999999995,0,1,1,768.9115171398512,588.628096625824Z" opacity="1" id="point-1-39"/><path class="data-point" visibility="visible" fill="rgb(200, 64, 83)" data-type="point" transform="translate(0, 0)" d="M787.3209098531194,585.5233173355103A5.3999999999999995,5.3999999999999995,0,1,1,798.1209098531193,585.5233173355103A5.3999999999999995,5.3999999999999995,0,1,1,787.3209098531194,585.5233173355103Z" opacity="1" id="point-1-40"/><path class="data-point" visibility="visible" fill="rgb(200, 64, 83)" data-type="point" transform="translate(0, 0)" d="M805.680003679193,588.1504382734681A5.3999999999999995,5.3999999999999995,0,1,1,816.4800036791929,588.1504382734681A5.3999999999999995,5.3999999999999995,0,1,1,805.680003679193,588.1504382734681Z" opacity="1" id="point-1-41"/><path class="data-point" visibility="visible" fill="rgb(200, 64, 83)" data-type="point" transform="translate(0, 0)" d="M824.0390975052665,588.628096625824A5.3999999999999995,5.3999999999999995,0,1,1,834.8390975052664,588.628096625824A5.3999999999999995,5.3999999999999995,0,1,1,824.0390975052665,588.628096625824Z" opacity="1" id="point-1-42"/><path class="data-point" visibility="visible" fill="rgb(200, 64, 83)" data-type="point" transform="translate(0, 0)" d="M842.3981913313397,582.6573672213746A5.3999999999999995,5.3999999999999995,0,1,1,853.1981913313397,582.6573672213746A5.3999999999999995,5.3999999999999995,0,1,1,842.3981913313397,582.6573672213746Z" opacity="1" id="point-1-43"/><path class="data-point" visibility="visible" fill="rgb(200, 64, 83)" data-type="point" transform="translate(0, 0)" d="M860.8075840446081,577.164296169281A5.3999999999999995,5.3999999999999995,0,1,1,871.6075840446081,577.164296169281A5.3999999999999995,5.3999999999999995,0,1,1,860.8075840446081,577.164296169281Z" opacity="1" id="point-1-44"/><path class="data-point" visibility="visible" fill="rgb(200, 64, 83)" data-type="point" transform="translate(0, 0)" d="M879.1666778706815,582.1797088690187A5.3999999999999995,5.3999999999999995,0,1,1,889.9666778706815,582.1797088690187A5.3999999999999995,5.3999999999999995,0,1,1,879.1666778706815,582.1797088690187Z" opacity="1" id="point-1-45"/><path class="data-point" visibility="visible" fill="rgb(200, 64, 83)" data-type="point" transform="translate(0, 0)" d="M897.5257716967551,577.641954521637A5.3999999999999995,5.3999999999999995,0,1,1,908.325771696755,577.641954521637A5.3999999999999995,5.3999999999999995,0,1,1,897.5257716967551,577.641954521637Z" opacity="1" id="point-1-46"/><path class="data-point" visibility="visible" fill="rgb(200, 64, 83)" data-type="point" transform="translate(0, 0)" d="M915.8848655228286,577.880783697815A5.3999999999999995,5.3999999999999995,0,1,1,926.6848655228285,577.880783697815A5.3999999999999995,5.3999999999999995,0,1,1,915.8848655228286,577.880783697815Z" opacity="1" id="point-1-47"/><path class="data-point" visibility="visible" fill="rgb(200, 64, 83)" data-type="point" transform="translate(0, 0)" d="M934.2942582360968,574.0595168789673A5.3999999999999995,5.3999999999999995,0,1,1,945.0942582360967,574.0595168789673A5.3999999999999995,5.3999999999999995,0,1,1,934.2942582360968,574.0595168789673Z" opacity="1" id="point-1-48"/><path class="data-point" visibility="visible" fill="rgb(200, 64, 83)" data-type="point" transform="translate(0, 0)" d="M952.6533520621703,563.7898623033143A5.3999999999999995,5.3999999999999995,0,1,1,963.4533520621702,563.7898623033143A5.3999999999999995,5.3999999999999995,0,1,1,952.6533520621703,563.7898623033143Z" opacity="1" id="point-1-49"/><path class="data-point" visibility="visible" fill="rgb(200, 64, 83)" data-type="point" transform="translate(0, 0)" d="M971.0124458882437,513.1580769535828A5.3999999999999995,5.3999999999999995,0,1,1,981.8124458882437,513.1580769535828A5.3999999999999995,5.3999999999999995,0,1,1,971.0124458882437,513.1580769535828Z" opacity="1" id="point-1-50"/><path class="data-point" visibility="visible" fill="rgb(200, 64, 83)" data-type="point" transform="translate(0, 0)" d="M989.3715397143172,525.8160232910157A5.3999999999999995,5.3999999999999995,0,1,1,1000.1715397143172,525.8160232910157A5.3999999999999995,5.3999999999999995,0,1,1,989.3715397143172,525.8160232910157Z" opacity="1" id="point-1-51"/><path class="data-point" visibility="visible" fill="rgb(200, 64, 83)" data-type="point" transform="translate(0, 0)" d="M1007.7809324275855,489.036330159607A5.3999999999999995,5.3999999999999995,0,1,1,1018.5809324275855,489.036330159607A5.3999999999999995,5.3999999999999995,0,1,1,1007.7809324275855,489.036330159607Z" opacity="1" id="point-1-52"/><path class="data-point" visibility="visible" fill="rgb(200, 64, 83)" data-type="point" transform="translate(0, 0)" d="M1026.1400262536588,450.58483279495243A5.3999999999999995,5.3999999999999995,0,1,1,1036.940026253659,450.58483279495243A5.3999999999999995,5.3999999999999995,0,1,1,1026.1400262536588,450.58483279495243Z" opacity="1" id="point-1-53"/><path class="data-point" visibility="visible" fill="rgb(200, 64, 83)" data-type="point" transform="translate(0, 0)" d="M1044.4991200797324,334.75268234863285A5.3999999999999995,5.3999999999999995,0,1,1,1055.2991200797326,334.75268234863285A5.3999999999999995,5.3999999999999995,0,1,1,1044.4991200797324,334.75268234863285Z" opacity="1" id="point-1-54"/><path class="data-point" visibility="visible" fill="rgb(200, 64, 83)" data-type="point" transform="translate(0, 0)" d="M1062.858213905806,341.91755763397225A5.3999999999999995,5.3999999999999995,0,1,1,1073.6582139058062,341.91755763397225A5.3999999999999995,5.3999999999999995,0,1,1,1062.858213905806,341.91755763397225Z" opacity="1" id="point-1-55"/><path class="data-point" visibility="visible" fill="rgb(200, 64, 83)" data-type="point" transform="translate(0, 0)" d="M1081.267606619074,317.5569816638183A5.3999999999999995,5.3999999999999995,0,1,1,1092.0676066190742,317.5569816638183A5.3999999999999995,5.3999999999999995,0,1,1,1081.267606619074,317.5569816638183Z" opacity="1" id="point-1-56"/><path class="data-point" visibility="visible" fill="rgb(200, 64, 83)" data-type="point" transform="translate(0, 0)" d="M1099.6267004451477,289.3751388748169A5.3999999999999995,5.3999999999999995,0,1,1,1110.4267004451478,289.3751388748169A5.3999999999999995,5.3999999999999995,0,1,1,1099.6267004451477,289.3751388748169Z" opacity="1" id="point-1-57"/><path class="data-point" visibility="visible" fill="rgb(200, 64, 83)" data-type="point" transform="translate(0, 0)" d="M1117.985794271221,251.8789582148743A5.3999999999999995,5.3999999999999995,0,1,1,1128.7857942712212,251.8789582148743A5.3999999999999995,5.3999999999999995,0,1,1,1117.985794271221,251.8789582148743Z" opacity="1" id="point-1-58"/><path class="data-point" visibility="visible" fill="rgb(200, 64, 83)" data-type="point" transform="translate(0, 0)" d="M1136.3448880972946,206.74024391723628A5.3999999999999995,5.3999999999999995,0,1,1,1147.1448880972948,206.74024391723628A5.3999999999999995,5.3999999999999995,0,1,1,1136.3448880972946,206.74024391723628Z" opacity="1" id="point-1-59"/><path class="data-point" visibility="visible" fill="rgb(200, 64, 83)" data-type="point" transform="translate(0, 0)" d="M1154.7542808105627,206.5014147410584A5.3999999999999995,5.3999999999999995,0,1,1,1165.554280810563,206.5014147410584A5.3999999999999995,5.3999999999999995,0,1,1,1154.7542808105627,206.5014147410584Z" opacity="1" id="point-1-60"/><path class="data-point" visibility="visible" fill="rgb(200, 64, 83)" data-type="point" transform="translate(0, 0)" d="M1173.1133746366363,257.6108584431458A5.3999999999999995,5.3999999999999995,0,1,1,1183.9133746366365,257.6108584431458A5.3999999999999995,5.3999999999999995,0,1,1,1173.1133746366363,257.6108584431458Z" opacity="1" id="point-1-61"/><path class="data-point" visibility="visible" fill="rgb(200, 64, 83)" data-type="point" transform="translate(0, 0)" d="M1191.47246846271,184.05147218032837A5.3999999999999995,5.3999999999999995,0,1,1,1202.27246846271,184.05147218032837A5.3999999999999995,5.3999999999999995,0,1,1,1191.47246846271,184.05147218032837Z" opacity="1" id="point-1-62"/><path class="data-point" visibility="visible" fill="rgb(200, 64, 83)" data-type="point" transform="translate(0, 0)" d="M1209.8315622887833,167.81108820022584A5.3999999999999995,5.3999999999999995,0,1,1,1220.6315622887835,167.81108820022584A5.3999999999999995,5.3999999999999995,0,1,1,1209.8315622887833,167.81108820022584Z" opacity="1" id="point-1-63"/><path class="data-point" visibility="visible" fill="rgb(200, 64, 83)" data-type="point" transform="translate(0, 0)" d="M1228.2409550020514,196.23176016540532A5.3999999999999995,5.3999999999999995,0,1,1,1239.0409550020515,196.23176016540532A5.3999999999999995,5.3999999999999995,0,1,1,1228.2409550020514,196.23176016540532Z" opacity="1" id="point-1-64"/><path class="data-point" visibility="visible" fill="rgb(200, 64, 83)" data-type="point" transform="translate(0, 0)" d="M1246.600048828125,140.8233912921143A5.3999999999999995,5.3999999999999995,0,1,1,1257.4000488281251,140.8233912921143A5.3999999999999995,5.3999999999999995,0,1,1,1246.600048828125,140.8233912921143Z" opacity="1" id="point-1-65"/></g></g><g id="lines-secondary"/><g id="data-point-labels"><g class="series" transform="translate(0,0)" clip-path="url(#facet-clip-0)"/><g class="series" transform="translate(0,0)" clip-path="url(#facet-clip-0)"/></g><g id="stack-labels"/><g class="annotations above"><g class="axis-highlights" transform="translate(0, 0)" style="opacity: 1;"/></g></svg><svg xmlns="http://www.w3.org/2000/svg" class="fl-annotations" x="17.100006103515625" y="144.53334045410156"><defs/><g class="fl-annotations-cursor inner-outline"><circle r="16"/><line x1="-6" x2="6"/><line y1="-6" y2="6"/></g><g class="fl-annotations-cursor"><circle r="16"/><line x1="-6" x2="6"/><line y1="-6" y2="6"/></g></svg></svg>